#!OML:ASF F:\VICON\USERDATA\INSTALL\rory3\rory3.ASF
:FULLY-SPECIFIED
:DEGREES
348
root 9.91662 17.7165 12.3486 268.805 86.9416 271.619
lowerback 10.6263 2.81342 3.55647
upperback 1.02333 4.219 0.392213
thorax -4.65368 2.03718 -2.19039
lowerneck -18.8014 -6.23897 -11.5335
upperneck 29.7708 -7.01476 7.34734
head 14.0119 -3.16851 3.72567
rclavicle -4.41053e-016 1.35174e-014
rhumerus -22.6617 -6.11292 -82.7919
rradius 40.0491
rwrist 0.71564
rhand -17.6619 10.3634
rfingers 7.12502
rthumb 8.59664 -19.4416
lclavicle -4.41053e-016 1.35174e-014
lhumerus -40.374 11.9592 77.9117
lradius 22.9889
lwrist -14.5764
lhand -16.2881 25.7418
lfingers 7.12502
lthumb 9.92221 55.4879
rfemur 12.7195 5.30544 27.5441
rtibia 26.367
rfoot -12.831 -2.92268
rtoes -7.62916
lfemur -19.9911 -2.93313 -15.972
ltibia 18.444
lfoot -0.553506 -4.05056
ltoes -4.9338
349
root 10.0828 17.7288 12.324 268.712 87.4743 271.653
lowerback 10.6117 2.92131 2.96762
upperback 1.02007 4.28324 0.239385
thorax -4.67594 2.07772 -2.02937
lowerneck -18.5313 -6.28913 -11.4345
upperneck 29.6651 -7.14488 7.34209
head 13.918 -3.2175 3.68291
rclavicle 2.91965e-016 9.24349e-015
rhumerus -23.122 -6.61898 -82.8499
rradius 40.2433
rwrist 0.614742
rhand -18.1198 10.2373
rfingers 7.12502
rthumb 8.15469 -19.5854
lclavicle 2.91965e-016 9.24349e-015
lhumerus -40.2998 12.0074 77.8908
lradius 22.8774
lwrist -14.71
lhand -16.0698 25.9778
lfingers 7.12502
lthumb 10.1328 55.7138
rfemur 12.4325 5.04974 26.8235
rtibia 28.0842
rfoot -12.0241 -2.62345
rtoes -7.99485
lfemur -19.1223 -2.11232 -16.867
ltibia 17.8006
lfoot 0.6083 -5.6124
ltoes -5.02145
350
root 10.2482 17.738 12.2928 266.553 88.2952 269.609
lowerback 10.5168 2.95481 2.15526
upperback 1.10657 4.21878 0.0380285
thorax -4.5787 2.0626 -1.76817
lowerneck -18.4615 -6.33572 -11.7111
upperneck 29.6166 -7.22146 7.62956
head 13.919 -3.2451 3.83355
rclavicle -9.32424e-015 3.8763e-015
rhumerus -23.4009 -6.82752 -82.9016
rradius 40.4106
rwrist 0.431113
rhand -18.371 10.1109
rfingers 7.12502
rthumb 7.91225 -19.721
lclavicle -9.32424e-015 3.8763e-015
lhumerus -40.1176 11.9952 78.011
lradius 22.772
lwrist -14.6144
lhand -15.8524 25.9137
lfingers 7.12502
lthumb 10.3425 55.6394
rfemur 11.9965 4.55896 25.6467
rtibia 30.0042
rfoot -11.1486 -2.15748
rtoes -8.92969
lfemur -18.1891 -1.28254 -18.1053
ltibia 17.1374
lfoot 1.63562 -7.01063
ltoes -4.71041
351
root 10.4152 17.7573 12.2582 258.498 89.2689 261.472
lowerback 10.2095 2.90548 1.23603
upperback 1.1421 4.02871 -0.230448
thorax -4.42199 1.98578 -1.48863
lowerneck -18.5687 -6.29106 -11.9233
upperneck 29.7167 -7.13401 7.80959
head 13.9938 -3.20559 3.96276
rclavicle -6.31141e-015 -6.95746e-016
rhumerus -23.6633 -6.63937 -83.0422
rradius 40.4223
rwrist 0.3227
rhand -18.2605 10.2066
rfingers 7.12502
rthumb 8.01892 -19.6213
lclavicle -6.31141e-015 -6.95746e-016
lhumerus -39.9772 12.5381 77.7596
lradius 22.5945
lwrist -14.8137
lhand -15.9177 26.0045
lfingers 7.12502
lthumb 10.2796 55.7333
rfemur 11.2553 4.06416 24.2238
rtibia 32.0552
rfoot -9.98212 -1.58493
rtoes -8.78634
lfemur -17.3959 -1.03743 -19.365
ltibia 16.5726
lfoot 2.15215 -7.12814
ltoes -4.06375
352
root 10.5784 17.7782 12.2245 213.67 89.7241 216.561
lowerback 9.99849 2.84425 0.719997
upperback 1.09196 3.8801 -0.375854
thorax -4.38543 1.91989 -1.32119
lowerneck -18.6182 -6.24026 -11.8906
upperneck 29.905 -7.04864 7.75957
head 14.0719 -3.16893 3.9592
rclavicle -1.22128e-014 5.76476e-015
rhumerus -24.0564 -6.60097 -83.1222
rradius 40.2954
rwrist 0.405045
rhand -18.1382 10.419
rfingers 7.12502
rthumb 8.13696 -19.4044
lclavicle -1.22128e-014 5.76476e-015
lhumerus -40.0256 13.4945 77.3222
lradius 22.5229
lwrist -15.3805
lhand -15.9227 26.0425
lfingers 7.12502
lthumb 10.2747 55.7716
rfemur 10.4014 3.5537 23.2787
rtibia 34.1513
rfoot -8.38196 -0.962421
rtoes -7.98029
lfemur -16.7206 -1.09367 -20.0687
ltibia 16.2431
lfoot 2.11286 -6.64485
ltoes -4.24123
353
root 10.7383 17.7974 12.1908 171.479 89.6343 174.423
lowerback 10.0121 2.83061 0.630391
upperback 1.00897 3.84604 -0.484365
thorax -4.47877 1.90187 -1.38297
lowerneck -18.4089 -6.26604 -11.7259
upperneck 29.9526 -7.13527 7.68073
head 14.0462 -3.1988 3.88719
rclavicle -6.93696e-014 6.55989e-015
rhumerus -24.6644 -7.19381 -83.1978
rradius 40.2734
rwrist 0.649616
rhand -18.1318 10.4822
rfingers 7.12502
rthumb 8.14313 -19.3409
lclavicle -6.93696e-014 6.55989e-015
lhumerus -40.076 13.892 77.0685
lradius 22.5285
lwrist -15.6849
lhand -15.995 26.0717
lfingers 7.12502
lthumb 10.205 55.8042
rfemur 9.59364 3.04291 22.7491
rtibia 36.2603
rfoot -6.39962 -0.344517
rtoes -6.39082
lfemur -16.077 -0.610572 -20.4871
ltibia 16.1873
lfoot 1.76275 -7.05503
ltoes -4.89531
354
root 10.896 17.8169 12.1555 161.375 89.4882 164.395
lowerback 10.0501 2.83912 0.72645
upperback 0.961125 3.86233 -0.602333
thorax -4.53493 1.90621 -1.56502
lowerneck -18.2866 -6.34321 -11.6656
upperneck 30.0488 -7.28202 7.68789
head 14.0779 -3.25356 3.85809
rclavicle -2.42269e-016 1.2921e-015
rhumerus -25.2264 -8.00288 -83.2582
rradius 40.246
rwrist 0.824757
rhand -17.959 10.4087
rfingers 7.12502
rthumb 8.30986 -19.4079
lclavicle -2.42269e-016 1.2921e-015
lhumerus -39.9728 13.6332 77.1397
lradius 22.6302
lwrist -15.3015
lhand -16.3953 26.4037
lfingers 7.12502
lthumb 9.81883 56.1547
rfemur 8.69471 2.47255 22.2778
rtibia 38.4084
rfoot -4.03855 0.329324
rtoes -4.7234
lfemur -15.4752 0.0199778 -20.7998
ltibia 16.3107
lfoot 1.45907 -7.86417
ltoes -2.46018
